<?xml version="1.0" standalone="no"?>
<!DOCTYPE svg PUBLIC "-//W3C//DTD SVG 20010904//EN"
 "http://www.w3.org/TR/2001/REC-SVG-20010904/DTD/svg10.dtd">
<svg version="1.0" xmlns="http://www.w3.org/2000/svg"
 width="300.000000pt" height="300.000000pt" viewBox="0 0 300.000000 300.000000"
 preserveAspectRatio="xMidYMid meet">
<metadata>
Created by potrace 1.10, written by Peter Selinger 2001-2011
</metadata>
<g transform="translate(0.000000,300.000000) scale(0.050000,-0.050000)"
fill="#000000" stroke="none">
<path d="M4180 5953 c-38 -21 -103 -75 -144 -120 -41 -46 -85 -92 -97 -103
-270 -246 -294 -280 -240 -345 l38 -46 71 43 c97 57 71 131 -27 79 -36 -20
-61 -10 -61 23 0 10 29 31 65 48 36 16 104 61 152 99 100 80 116 83 133 29 8
-25 30 -40 60 -40 26 0 63 -5 83 -12 36 -11 36 -10 0 19 -20 17 -51 25 -68 18
-36 -13 -19 94 19 117 11 7 15 30 8 52 -25 80 88 152 222 142 207 -16 430
-169 363 -250 -17 -20 -12 -26 20 -26 32 0 41 -11 38 -45 -3 -25 4 -43 16 -41
12 2 20 -43 20 -110 -1 -63 11 -134 26 -159 45 -74 -62 -79 -627 -31 -77 6
-165 12 -195 14 -37 1 -55 12 -52 32 9 80 -83 141 -109 72 -8 -19 0 -24 27
-17 47 12 50 -10 7 -57 -29 -33 -29 -39 10 -81 40 -43 43 -43 69 -8 17 24 36
31 54 20 15 -9 45 -18 68 -20 86 -9 384 -70 489 -100 l109 -32 -58 -37 c-89
-56 -211 -57 -278 -4 -65 51 -111 57 -111 15 0 -32 98 -91 151 -91 56 0 19
-48 -49 -62 -84 -17 -101 -37 -46 -51 28 -7 44 -27 45 -54 0 -39 2 -40 21 -8
11 19 33 35 48 35 17 0 24 12 17 30 -6 17 0 30 13 30 13 0 47 19 76 41 30 24
56 33 60 21 12 -37 164 54 164 99 0 23 19 47 46 57 99 38 123 138 90 382 -15
107 -86 280 -115 280 -12 0 -21 12 -21 27 0 25 -222 156 -255 151 -8 -2 -24
-1 -35 2 -91 19 -248 5 -310 -27z"/>
<path d="M4175 5555 c-7 -17 5 -28 32 -30 24 -2 55 -21 70 -44 37 -55 59 -52
56 8 -2 32 -18 53 -46 60 -24 6 -56 16 -73 22 -16 6 -34 -1 -39 -16z"/>
<path d="M3656 5529 c-6 -5 -28 -14 -48 -18 -21 -4 -65 -18 -98 -31 -33 -13
-73 -26 -90 -30 -76 -16 -91 -21 -101 -35 -6 -8 -58 -19 -115 -25 -218 -20
-444 -138 -444 -230 0 -11 -11 -20 -25 -20 -44 0 -202 -125 -334 -265 -70 -74
-140 -135 -154 -135 -15 0 -27 -8 -27 -17 0 -10 -27 -48 -60 -85 -33 -38 -60
-79 -60 -93 0 -14 -11 -25 -23 -25 -13 0 -18 -6 -10 -13 7 -8 -1 -35 -17 -60
-17 -26 -25 -47 -17 -47 7 0 -1 -16 -19 -36 -18 -20 -36 -56 -40 -80 -3 -23
-12 -49 -19 -56 -7 -7 -8 -36 -3 -65 6 -29 0 -80 -14 -113 -13 -33 -23 -67
-21 -75 2 -8 -6 -15 -17 -15 -11 0 -20 -13 -20 -30 0 -16 -8 -30 -18 -30 -10
0 -31 -34 -48 -75 -17 -41 -47 -111 -66 -155 -20 -44 -36 -86 -37 -93 0 -8 -8
-20 -16 -29 -8 -8 -15 -27 -15 -42 0 -15 -22 -62 -50 -106 -27 -44 -50 -92
-50 -108 0 -16 -10 -55 -23 -86 -54 -130 -61 -475 -11 -547 46 -65 43 -79 -24
-151 -59 -63 -131 -237 -112 -268 6 -10 3 -22 -6 -28 -25 -15 -26 -216 -1
-245 11 -14 13 -37 5 -50 -9 -14 -18 -48 -21 -76 -3 -28 -13 -53 -23 -56 -9
-3 -14 -71 -10 -151 6 -131 -17 -246 -56 -274 -52 -38 -79 -208 -47 -303 47
-143 -53 -537 -137 -537 -9 0 -11 -8 -5 -18 6 -9 -3 -29 -19 -42 -93 -77 39
-251 210 -275 27 -4 54 -16 60 -26 6 -9 47 -23 91 -29 43 -6 98 -14 121 -18
23 -3 54 -13 69 -22 14 -9 49 -19 78 -22 28 -3 78 -11 111 -17 121 -22 426
-36 498 -23 78 15 85 48 8 42 -25 -2 -53 6 -63 18 -11 16 -19 15 -26 -3 -7
-17 -63 -25 -180 -25 -108 0 -165 7 -157 20 7 11 0 20 -15 20 -21 0 -25 28
-19 120 7 104 4 119 -24 108 -31 -12 -42 -55 -35 -141 4 -44 -92 -59 -130 -21
-7 8 -34 14 -59 14 -52 0 -128 94 -128 158 0 29 -13 42 -41 42 -25 0 -36 -9
-28 -22 10 -16 3 -16 -27 0 -47 25 -54 18 -74 -75 -24 -115 -60 -40 -54 113 4
83 -1 124 -12 108 -12 -18 -18 -5 -19 40 -1 50 3 57 14 26 13 -33 19 -27 41
40 34 106 120 253 140 240 20 -12 41 40 38 97 -2 33 -6 29 -18 -17 l-15 -60
-4 60 c-3 58 -4 57 -37 -27 -19 -48 -43 -88 -53 -90 -29 -5 -14 391 16 421 7
7 13 31 13 53 0 31 6 35 23 18 21 -21 32 -18 115 30 4 2 -4 18 -18 35 -20 24
-21 37 -3 55 13 13 23 32 23 44 -1 12 -21 -10 -45 -49 l-45 -70 -11 70 c-14
89 1 144 24 89 12 -27 13 -19 6 24 -8 46 -3 69 20 81 36 20 76 140 52 156 -18
11 -57 -29 -58 -60 -1 -11 -16 -23 -33 -27 -26 -5 -32 6 -26 50 3 31 14 54 24
50 46 -17 74 299 33 376 -18 33 -15 49 19 85 22 25 36 58 30 75 -6 19 1 16 20
-8 16 -21 30 -29 30 -16 0 12 -14 36 -31 54 -18 17 -22 31 -10 31 11 0 21 19
21 41 0 49 40 32 41 -17 0 -19 18 -70 39 -114 21 -44 39 -91 39 -104 1 -13 18
-29 40 -36 27 -8 38 -29 37 -71 -1 -33 4 -65 11 -73 7 -7 13 16 13 51 0 57
-30 137 -62 163 -35 28 -138 278 -126 307 16 43 48 43 48 -1 0 -45 98 -146
143 -146 19 0 40 -9 47 -20 7 -11 28 -20 46 -20 19 0 58 -13 88 -29 50 -26
148 -39 246 -32 66 4 -18 56 -150 94 -60 18 -125 45 -143 60 -18 16 -51 31
-73 32 -23 2 -37 11 -31 19 5 9 -16 22 -47 28 -81 16 -129 127 -138 320 -4 85
-16 161 -27 167 -23 14 -5 156 22 173 9 6 17 -18 17 -52 0 -34 19 -88 43 -120
24 -32 47 -87 50 -123 10 -83 21 -93 57 -46 28 38 29 37 30 -11 1 -61 39 -132
40 -74 0 19 13 40 30 47 42 16 37 62 -8 76 -54 18 -66 90 -26 159 35 60 86 97
240 174 112 56 93 71 -35 28 -165 -54 -323 -246 -272 -328 7 -12 4 -22 -8 -22
-11 0 -21 19 -21 41 0 23 -11 61 -24 85 -31 57 -44 145 -38 267 2 45 103 101
141 78 11 -7 21 1 21 18 0 37 -42 41 -76 7 -39 -39 -49 -3 -15 61 17 34 31 75
31 93 0 17 13 36 30 43 16 6 30 28 30 49 0 21 9 38 20 38 11 0 20 28 20 61 0
34 7 57 16 52 9 -6 18 16 20 48 7 89 41 163 67 147 13 -8 18 -6 12 4 -6 10 1
35 16 55 30 43 173 -70 154 -123 -9 -27 29 -84 57 -84 9 0 12 13 6 28 -6 15
-1 34 11 41 11 7 21 2 21 -11 0 -14 5 -19 12 -13 15 16 -106 141 -167 173 -52
27 -80 115 -48 147 17 17 23 17 23 -1 0 -41 35 -26 49 21 l13 45 20 -50 c23
-57 91 -121 208 -195 43 -28 91 -63 106 -78 15 -15 42 -27 60 -26 24 0 17 10
-21 34 -79 49 -75 114 5 98 71 -14 78 11 15 51 -63 41 -199 68 -146 29 28 -20
31 -31 12 -43 -14 -8 -32 -5 -40 9 -8 13 -31 26 -51 29 -20 3 -56 40 -80 84
-28 51 -59 79 -87 81 -24 1 -51 3 -60 5 -25 3 -3 97 29 124 15 13 28 42 29 65
0 24 14 66 31 93 29 48 30 46 22 -54 -11 -143 20 -182 38 -48 15 116 106 259
107 169 1 -67 22 -107 56 -107 27 0 27 4 -2 37 -42 46 -42 91 2 186 38 82 89
107 70 34 -7 -26 -3 -38 9 -31 11 7 30 -31 43 -89 13 -56 40 -125 60 -154 20
-29 43 -70 50 -91 8 -21 19 -33 25 -27 15 15 -61 186 -90 204 -62 38 -10 307
80 410 79 91 94 40 29 -100 -31 -66 -50 -141 -48 -189 1 -50 5 -61 10 -30 11
70 90 240 112 240 9 0 12 8 6 19 -6 10 -3 24 9 31 11 7 20 30 20 52 0 22 13
44 29 50 16 7 39 44 52 85 27 85 68 123 133 123 25 0 46 9 46 20 0 21 128 14
215 -12 34 -10 43 -6 35 15 -9 24 91 81 150 86 29 3 260 123 260 136 0 17 -28
20 -44 4z m-2449 -5144 c-6 -25 -20 -45 -32 -45 -11 0 -14 20 -8 45 7 25 13
77 15 115 l2 70 17 -70 c9 -38 12 -90 6 -115z"/>
<path d="M3910 5524 c-25 -26 -6 -48 33 -37 31 8 59 -6 101 -51 58 -62 91 -65
68 -5 -7 18 -30 37 -52 43 -22 6 -40 18 -40 26 0 18 -95 39 -110 24z"/>
<path d="M3820 5181 c0 -11 13 -21 28 -21 16 0 32 -10 36 -23 6 -16 27 -18 67
-7 l59 16 -71 13 c-39 7 -81 20 -95 28 -13 9 -24 6 -24 -6z"/>
<path d="M3002 5105 c-12 -24 -22 -56 -22 -72 0 -16 -7 -33 -15 -36 -8 -4 -31
-38 -50 -77 l-35 -70 70 80 c38 44 70 71 71 60 2 -11 10 6 20 38 23 78 -6 137
-39 77z"/>
<path d="M3464 5116 c-13 -13 -24 -36 -24 -50 0 -14 -8 -26 -18 -26 -59 0 -43
-122 27 -204 40 -47 68 -96 62 -110 -5 -13 18 -52 52 -86 57 -57 79 -156 57
-250 -13 -53 3 -130 26 -130 101 0 325 -416 249 -463 -13 -8 -26 -58 -28 -111
-2 -53 -10 -121 -18 -151 -7 -30 -6 -55 4 -54 25 1 107 136 107 177 0 38 63
103 135 140 52 27 104 108 58 90 -18 -7 -33 8 -41 40 -7 28 -32 69 -55 91 -37
34 -41 54 -31 153 16 155 33 166 142 85 50 -37 114 -84 143 -104 l52 -37 -57
-63 c-116 -126 -125 -144 -53 -107 73 38 153 155 136 200 -9 23 3 28 55 24 85
-7 101 4 75 51 -14 28 -14 39 1 39 13 0 16 10 8 22 -8 15 -53 19 -126 12 -61
-6 -89 -4 -62 4 28 7 49 25 48 38 -4 53 -9 64 -26 64 -10 0 -13 -18 -8 -41 12
-43 0 -43 -354 -13 -55 5 -99 -2 -115 -18 -20 -21 -13 -27 39 -32 l64 -6 -66
-75 c-80 -90 -103 -93 -148 -17 -43 74 -43 82 6 82 27 0 40 13 40 41 0 22 13
45 30 52 25 9 23 19 -10 62 -22 28 -40 64 -40 80 0 23 -7 24 -26 8 -20 -16
-33 -16 -50 1 -43 43 -26 87 39 107 38 11 66 34 69 56 10 73 28 96 73 89 64
-9 73 -90 11 -102 -40 -7 -38 -9 11 -11 41 -2 60 8 67 37 13 47 32 51 65 11
18 -22 68 -29 193 -27 130 1 177 -6 205 -31 44 -40 77 -44 45 -6 -27 33 -11
85 30 101 30 11 98 149 82 165 -5 4 -30 -24 -56 -63 -35 -53 -59 -70 -91 -64
-32 6 -42 -1 -37 -27 9 -46 -307 -37 -375 10 -24 17 -60 31 -79 31 -52 0 -136
137 -136 222 0 124 -80 159 -89 39 -3 -34 -11 -68 -18 -75 -7 -7 -13 -32 -13
-57 0 -24 -16 -65 -37 -91 -55 -73 -62 -108 -33 -166 25 -47 24 -52 -10 -52
-40 0 -75 48 -86 118 -4 23 -27 64 -53 91 -39 41 -43 55 -21 80 34 42 60 39
60 -8 0 -60 30 -64 80 -11 31 33 41 62 33 93 -6 25 0 59 13 76 19 24 14 24
-29 -4 -56 -35 -76 -26 -103 50 -15 41 -37 44 -70 11z m339 -229 c51 -45 46
-67 -13 -67 -40 0 -50 10 -50 50 0 59 13 62 63 17z"/>
<path d="M4133 4915 c-7 -25 -13 -56 -13 -70 0 -32 54 -33 65 0 5 14 25 25 45
25 20 0 40 11 45 25 8 23 -22 33 -90 30 -13 0 -20 8 -14 17 6 10 3 18 -7 18
-11 0 -25 -20 -31 -45z"/>
<path d="M2767 4829 c-7 -17 -3 -51 9 -75 19 -40 21 -36 23 31 1 79 -12 97
-32 44z"/>
<path d="M2901 4654 c-1 -23 -10 -31 -26 -22 -14 8 -4 -7 22 -32 34 -33 40
-49 22 -60 -17 -11 -12 -19 17 -29 22 -7 45 -26 52 -42 16 -43 52 -35 52 11 0
22 -9 40 -20 40 -11 0 -20 11 -20 25 0 44 -98 151 -99 109z"/>
<path d="M3100 4620 c-27 -9 -39 -17 -25 -18 14 -1 25 -15 25 -32 0 -16 9 -30
19 -30 57 0 192 -182 173 -232 -16 -42 49 -112 80 -86 27 22 -10 148 -39 134
-7 -3 -27 20 -43 51 -34 66 -36 74 -15 71 73 -12 91 2 55 42 -44 49 -85 53
-47 5 24 -32 24 -32 -8 -8 -19 15 -29 36 -23 47 7 10 -7 24 -30 30 -23 6 -42
19 -42 28 0 21 -11 20 -80 -2z"/>
<path d="M4525 4607 c-18 -8 -8 -35 35 -93 33 -45 60 -93 60 -107 0 -14 18
-35 39 -47 23 -12 35 -33 28 -50 -6 -17 -1 -30 11 -30 37 0 25 -49 -19 -76
-22 -14 -36 -33 -30 -43 6 -9 -3 -22 -20 -29 -17 -6 -26 -3 -20 7 7 10 4 23
-5 29 -9 5 -28 -22 -43 -62 -18 -50 -19 -75 -4 -84 13 -8 -8 -29 -48 -51 -38
-20 -69 -48 -69 -62 0 -14 -15 -30 -33 -37 -18 -7 -27 -19 -20 -26 7 -7 3 -24
-10 -39 -32 -39 2 -33 83 14 l70 40 -47 -40 c-26 -23 -41 -41 -34 -41 28 0
-58 -118 -92 -127 -21 -5 -37 -27 -37 -50 0 -29 9 -38 30 -30 22 8 30 -3 30
-41 0 -121 53 -58 194 233 60 124 120 237 132 252 12 15 24 37 27 50 2 13 13
52 24 88 13 43 13 65 0 65 -10 0 -14 9 -7 20 7 11 5 31 -3 45 -9 14 -18 37
-20 52 -2 14 -17 41 -32 60 -16 18 -35 49 -41 68 -7 19 -23 35 -35 35 -12 0
-16 8 -10 19 6 10 -6 31 -29 46 -22 16 -34 35 -27 42 15 15 9 15 -28 0z"/>
<path d="M3920 4582 l-50 -14 53 -14 c30 -8 70 -8 90 -1 21 7 30 6 22 -3 -24
-27 26 -70 82 -70 156 1 187 62 41 82 -48 6 -110 17 -138 23 -27 7 -72 5 -100
-3z"/>
<path d="M2400 4424 c0 -25 93 -101 132 -108 56 -10 55 42 0 67 -29 13 -52 33
-52 45 0 12 -9 9 -20 -8 -13 -20 -19 -22 -20 -5 0 14 -9 25 -20 25 -11 0 -20
-7 -20 -16z"/>
<path d="M2629 4339 c-7 -11 -2 -34 12 -50 20 -24 17 -29 -16 -29 -22 0 -51
-14 -65 -30 -22 -26 -20 -29 7 -18 21 8 33 2 33 -16 0 -40 121 -151 181 -166
88 -21 117 38 52 105 -87 91 -131 148 -144 187 -13 42 -40 49 -60 17z"/>
<path d="M2994 4271 c46 -82 263 -236 391 -278 79 -26 -23 77 -115 116 -33 14
-99 62 -147 108 -85 82 -162 114 -129 54z"/>
<path d="M3405 4147 c-35 -14 -31 -60 5 -74 39 -15 84 3 98 40 6 16 3 24 -7
18 -10 -7 -24 -3 -31 9 -13 21 -25 23 -65 7z"/>
<path d="M2632 3968 c-19 -51 -16 -52 73 -37 101 16 114 25 74 50 -47 29 -134
22 -147 -13z"/>
<path d="M3435 3922 c-15 -55 10 -82 61 -69 50 13 51 16 23 68 -26 50 -71 50
-84 1z"/>
<path d="M2011 3892 c2 -60 64 -157 90 -141 11 6 27 -9 37 -35 13 -35 9 -49
-15 -59 -24 -9 -17 -16 27 -26 78 -17 302 -128 332 -163 13 -16 36 -28 51 -28
16 0 33 -13 39 -29 14 -36 102 -64 174 -55 46 6 52 12 33 35 -13 16 -31 24
-39 19 -21 -13 -189 62 -218 97 -18 22 -4 22 73 -3 52 -17 101 -40 109 -52 17
-25 175 -21 201 5 11 11 -23 28 -88 43 -59 14 -123 33 -142 43 -70 37 -212 53
-201 24 6 -15 0 -27 -12 -27 -12 0 -22 8 -22 19 0 10 -56 45 -125 77 -83 40
-145 87 -185 140 -33 44 -68 75 -78 69 -10 -6 -12 -2 -5 10 14 24 -3 85 -25
85 -7 0 -12 -22 -11 -48z"/>
<path d="M2940 3884 c0 -8 -20 -17 -45 -19 -124 -9 -160 -48 -101 -107 17 -17
32 -11 59 20 32 37 38 39 48 9 7 -19 39 -36 77 -40 53 -6 64 -1 55 23 -7 16
-3 30 8 30 30 0 23 -76 -9 -94 -36 -21 -49 -89 -19 -100 13 -5 29 10 37 33 18
57 47 51 72 -13 34 -90 7 -140 -97 -186 -52 -23 -120 -52 -150 -66 -77 -34
-68 -58 20 -54 187 9 202 -22 80 -168 -40 -48 -67 -93 -61 -100 30 -30 93 -7
160 58 40 39 83 70 96 70 14 0 105 26 202 59 196 64 269 52 214 -38 -29 -45
-7 -68 84 -90 75 -18 130 -66 130 -114 0 -20 8 -37 17 -37 20 0 93 78 81 86
-4 3 -34 19 -66 35 -75 37 -181 136 -165 153 7 7 34 -7 60 -31 59 -56 150 -82
208 -61 81 30 54 69 -42 61 -72 -5 -97 3 -143 45 -31 29 -62 52 -69 52 -8 0
-34 44 -58 98 -71 157 -159 240 -136 127 6 -30 7 -44 1 -30 -6 14 -26 25 -45
25 -71 1 -275 152 -312 232 -57 122 -191 215 -191 132z m580 -545 c0 -30 -221
-39 -276 -12 -29 15 -65 23 -79 19 -51 -18 -23 24 70 105 l95 84 95 -92 c52
-50 95 -97 95 -104z"/>
<path d="M2313 3835 c82 -138 160 -163 291 -93 30 16 37 16 27 0 -8 -13 3 -22
29 -22 77 0 30 50 -52 56 -58 4 -70 0 -48 -15 25 -17 22 -20 -13 -21 -24 0
-71 27 -104 60 -59 59 -161 87 -130 35z"/>
<path d="M3500 3651 c0 -8 13 -27 28 -42 16 -16 32 -39 36 -51 5 -14 25 -18
52 -9 50 16 59 51 13 51 -17 0 -53 15 -80 32 -27 18 -49 26 -49 19z"/>
<path d="M4565 3560 c48 -83 87 -280 55 -280 -12 0 3 -23 34 -51 37 -34 48
-55 32 -62 -19 -7 -16 -23 9 -62 19 -29 32 -73 28 -97 -3 -25 4 -64 16 -87 16
-30 16 -41 1 -41 -13 0 -16 -10 -9 -22 8 -12 2 -30 -13 -40 -16 -9 -30 -37
-32 -62 -2 -25 -10 -72 -18 -104 -10 -41 -7 -54 9 -44 13 8 24 7 25 -2 12
-127 -14 -174 -71 -127 -26 22 -77 -51 -99 -144 -7 -31 -26 -55 -44 -55 -17 0
-44 -14 -61 -30 -51 -51 -69 -11 -23 51 24 32 39 63 33 69 -18 18 -138 -33
-125 -53 23 -37 -56 -97 -128 -97 -59 0 -65 -4 -44 -30 20 -25 19 -30 -7 -30
-48 0 -69 139 -26 170 18 14 33 43 33 65 0 22 14 46 31 53 17 6 26 21 19 32
-7 11 7 20 31 20 30 0 40 -9 32 -30 -7 -16 -3 -30 8 -30 10 0 19 3 19 7 0 4
18 77 40 162 22 86 34 164 28 174 -18 30 -64 -20 -79 -86 -16 -75 -138 -200
-179 -184 -37 14 -38 54 -5 108 29 47 -4 81 -65 65 -20 -5 -56 1 -80 14 -37
20 -42 19 -29 -3 20 -32 -33 7 -107 78 -25 25 -59 45 -75 45 -16 0 -29 10 -29
22 0 12 -11 17 -25 12 -14 -5 -40 -1 -59 9 -24 12 -40 7 -56 -18 -22 -33 -22
-33 -12 0 9 29 -2 35 -69 35 -106 0 -185 51 -167 108 12 38 9 37 -28 -8 -22
-27 -47 -43 -55 -35 -8 8 -3 28 11 45 36 44 -7 37 -48 -8 -32 -35 -30 -39 52
-81 154 -80 276 -232 276 -344 0 -67 -119 -377 -173 -451 -32 -43 -47 -91 -47
-151 0 -95 -75 -235 -184 -345 -349 -349 -409 -469 -314 -623 26 -42 46 -83
44 -90 -3 -7 13 -28 35 -48 40 -36 56 -14 18 24 -16 16 -7 25 29 31 49 10 99
-45 54 -60 -28 -9 -3 -64 30 -64 32 0 37 -32 8 -50 -11 -7 -30 -52 -42 -101
-25 -99 -49 -112 -79 -44 -15 36 -17 31 -7 -25 16 -91 29 -110 51 -77 20 30
85 -34 66 -65 -6 -9 9 -26 33 -39 38 -20 42 -19 32 9 -8 20 -2 32 14 32 15 0
33 -13 39 -30 7 -16 31 -30 54 -30 23 0 60 -10 83 -22 64 -34 276 34 276 88 0
39 -1 39 -41 3 -32 -29 -45 -32 -57 -12 -13 21 -31 20 -92 -6 -98 -41 -164 -8
-140 69 16 49 -30 75 -59 34 -50 -68 -99 33 -58 119 27 58 28 74 7 87 -40 25
-45 221 -7 263 27 30 24 39 -32 93 -47 45 -61 74 -57 122 7 99 68 71 134 -61
30 -60 102 -91 102 -44 0 15 -13 33 -30 40 -16 6 -30 23 -30 37 0 15 -9 30
-20 33 -10 4 -25 36 -32 72 -16 82 32 74 68 -11 20 -48 22 -42 13 48 -15 158
62 184 118 39 11 -29 20 -32 37 -15 18 18 12 35 -22 72 -63 66 -37 307 50 475
16 29 28 74 29 100 4 223 173 385 428 410 95 9 215 90 169 114 -11 6 -8 8 7 5
38 -8 43 -90 6 -104 -17 -7 -31 -22 -31 -33 0 -11 -14 -31 -30 -43 -47 -34
-18 -159 33 -145 47 12 46 0 -3 -91 -49 -93 -19 -117 50 -39 31 34 72 58 101
58 l49 0 -42 -37 c-38 -33 -40 -39 -10 -50 30 -12 30 -15 -2 -39 -25 -18 -43
-20 -61 -5 -18 15 -25 13 -25 -9 0 -39 -60 -63 -87 -36 -56 56 -113 17 -61
-41 48 -54 25 -87 -26 -39 -47 43 -91 58 -50 17 35 -35 30 -116 -6 -116 -16 0
-30 -8 -30 -19 0 -10 -20 -25 -44 -32 -41 -13 -112 -69 -88 -69 7 0 -14 -25
-45 -55 -91 -88 -161 -209 -194 -335 -17 -65 -40 -130 -53 -144 -12 -15 -16
-33 -9 -39 24 -25 77 43 156 201 76 153 163 256 277 329 51 33 209 155 346
268 42 34 109 107 149 162 56 76 102 112 200 157 110 50 125 63 114 99 -8 27
-6 37 7 29 45 -28 165 208 176 346 18 212 11 319 -27 442 -12 39 -27 103 -34
143 -7 40 -25 84 -41 97 -16 14 -25 33 -19 42 6 10 3 18 -8 18 -11 0 -16 16
-11 35 5 20 -19 66 -54 105 -42 47 -53 54 -33 20z m-1025 -770 c25 -30 70 -43
53 -15 -5 9 26 12 69 8 43 -4 78 -16 78 -26 0 -20 141 -159 204 -201 118 -79
-163 -118 -309 -43 -64 33 -66 41 -22 90 18 21 23 37 11 37 -12 0 -27 17 -33
38 -7 21 -34 61 -61 90 -26 28 -41 52 -31 52 9 0 27 -13 41 -30z m-420 -1288
c0 -20 -38 -72 -85 -115 -91 -85 -119 -122 -165 -217 l-28 -60 5 76 c5 72 57
145 227 324 13 14 18 32 10 41 -8 8 -3 9 11 1 14 -8 25 -30 25 -50z"/>
<path d="M2160 3481 c0 -21 78 -50 94 -34 5 6 4 20 -3 32 -16 26 -91 28 -91 2z"/>
<path d="M4341 3378 c-36 -44 -70 -76 -76 -70 -6 6 1 25 15 42 39 47 9 36 -90
-34 -70 -49 -84 -68 -59 -76 24 -9 5 -33 -80 -101 -61 -49 -103 -92 -92 -95
10 -4 14 -19 8 -35 -9 -24 7 -27 86 -17 137 16 170 32 97 46 -73 15 -80 70
-10 78 36 4 56 -7 70 -39 11 -24 45 -52 75 -62 91 -30 208 132 157 219 -17 29
-21 21 -21 -48 -1 -46 -11 -90 -22 -97 -13 -7 -19 0 -15 18 3 17 -3 31 -14 32
-11 0 -20 -9 -20 -22 0 -37 -41 -41 -69 -8 -30 36 -3 87 99 191 58 60 78 127
43 148 -10 6 -46 -26 -82 -70z"/>
<path d="M2120 3384 c0 -11 21 -25 46 -31 26 -7 68 -30 93 -52 26 -23 64 -41
85 -41 21 0 33 -8 28 -18 -11 -17 21 -27 288 -90 72 -17 149 -36 172 -43 29
-8 41 -3 41 19 0 30 -15 35 -176 60 -30 5 -72 27 -95 50 -46 46 -73 53 -92 22
-17 -28 -50 -25 -50 5 -1 26 -188 111 -285 129 -30 6 -55 2 -55 -10z"/>
<path d="M2097 3065 c-61 -99 -64 -105 -40 -105 11 0 42 41 70 90 61 109 36
121 -30 15z"/>
<path d="M4552 3079 c-22 -22 -51 -39 -65 -39 -15 0 -27 -9 -27 -20 0 -35 57
-21 99 24 64 69 57 100 -7 35z"/>
<path d="M4320 2961 c0 -37 45 -45 76 -13 30 29 28 32 -22 32 -30 0 -54 -8
-54 -19z"/>
<path d="M2947 2715 c-9 -14 -13 -45 -10 -70 3 -25 -3 -45 -14 -45 -11 0 -6
-28 11 -62 24 -48 26 -66 7 -78 -16 -9 0 -19 42 -25 37 -6 70 -2 74 8 3 9 17
12 30 6 13 -7 9 0 -8 15 -17 14 -37 42 -44 61 -8 21 -26 30 -44 23 -25 -10
-30 5 -24 90 6 109 4 116 -20 77z"/>
<path d="M1916 2661 c-8 -55 232 -282 272 -258 14 9 83 -88 77 -108 -3 -8 7
-15 21 -15 15 0 62 -18 105 -39 l79 -39 -206 0 c-126 0 -218 -8 -235 -22 -15
-13 -46 -17 -68 -10 -25 8 -53 1 -72 -18 -27 -27 -23 -30 40 -25 55 4 71 -2
71 -27 0 -50 19 -59 73 -39 32 12 45 12 37 -1 -12 -20 26 -28 100 -21 65 7 81
36 43 78 -40 44 36 37 116 -10 47 -28 -24 -105 -96 -106 -25 -1 -33 -11 -26
-31 7 -17 -8 -48 -33 -72 l-44 -43 50 15 c28 9 64 20 80 26 26 10 26 7 3 -22
-16 -19 -45 -34 -67 -34 -21 0 -33 -9 -26 -20 7 -11 29 -20 50 -20 67 0 64
-39 -7 -81 -38 -23 -85 -65 -104 -94 l-35 -52 56 43 c58 46 110 58 110 24 0
-11 -13 -20 -30 -20 -16 0 -30 -10 -30 -21 0 -12 10 -15 21 -8 26 16 4 -130
-23 -160 -22 -23 -24 -57 -3 -44 8 5 16 -14 18 -42 2 -27 14 -57 28 -66 35
-21 -23 -79 -80 -79 -22 0 -41 -9 -41 -20 0 -10 -25 -25 -55 -33 -30 -7 -75
-29 -100 -48 -72 -56 -3 -65 126 -17 151 57 178 38 61 -44 -149 -103 -204
-153 -187 -170 9 -8 26 -5 39 8 53 53 90 -26 44 -93 -24 -34 -24 -44 2 -70 39
-39 38 -73 -2 -73 -41 0 -25 -48 19 -56 20 -4 33 6 33 26 0 29 3 30 30 3 17
-17 30 -43 30 -59 0 -16 12 -39 27 -52 15 -12 44 -64 63 -115 19 -51 52 -109
73 -130 20 -20 37 -46 37 -57 0 -11 14 -20 30 -20 17 0 30 -8 30 -17 0 -9 56
-45 125 -80 178 -90 535 -72 535 27 0 26 -8 27 -42 9 -55 -30 -75 -6 -27 31
22 16 30 29 19 29 -11 0 -37 -13 -59 -30 -54 -41 -91 -36 -91 11 0 22 9 40 20
40 11 0 20 10 20 23 0 13 -17 8 -40 -13 -25 -22 -40 -62 -40 -103 0 -67 -11
-77 -67 -55 -23 8 -26 23 -14 56 10 25 10 57 1 71 -11 18 -20 6 -29 -36 -13
-58 -51 -90 -51 -43 0 11 -18 20 -40 20 -22 0 -40 8 -40 18 0 9 -45 36 -99 60
-92 39 -261 296 -261 396 0 11 -32 56 -71 102 l-71 83 43 119 c24 66 69 142
101 171 57 51 58 54 58 273 0 138 12 269 32 344 17 68 26 147 20 178 -11 54
34 214 66 235 9 6 40 49 69 96 30 47 63 85 75 85 13 0 16 22 9 57 -17 76 18
101 134 93 52 -3 95 0 95 7 0 15 -144 63 -187 63 -16 0 -39 14 -53 30 -14 17
-40 30 -57 29 -26 0 -22 -9 15 -40 72 -60 36 -70 -88 -24 -79 29 -114 34 -123
18 -8 -13 -6 -17 2 -9 21 19 95 -21 81 -43 -5 -10 1 -22 15 -28 14 -5 -6 -10
-45 -11 -38 -1 -83 7 -100 18 -20 13 -22 19 -5 20 14 0 25 12 25 26 0 18 -28
24 -92 20 -89 -5 -158 30 -158 81 0 11 -13 24 -28 29 -18 6 -23 0 -13 -18 8
-16 0 -11 -18 11 -17 21 -31 55 -31 75 0 59 -35 41 -44 -23z m524 -303 c110
-23 126 -63 31 -75 -82 -9 -147 12 -171 57 -26 48 -9 50 140 18z"/>
<path d="M4507 2585 c-6 -19 -20 -59 -31 -89 -11 -29 -13 -64 -6 -77 21 -33
90 78 90 146 0 61 -35 75 -53 20z"/>
<path d="M3140 2342 c8 -29 25 -50 39 -47 13 4 18 -4 10 -16 -7 -12 -17 -17
-23 -12 -5 6 -43 -2 -83 -16 -40 -14 -91 -19 -113 -11 -22 8 -51 6 -65 -5 -17
-14 -25 -12 -25 4 0 13 -10 17 -22 10 -15 -9 -14 1 2 30 13 25 18 50 12 56 -7
6 -12 1 -12 -12 0 -12 -22 -23 -50 -23 -54 0 -71 -53 -22 -72 15 -6 34 -42 41
-79 7 -38 22 -69 33 -69 11 0 15 17 8 39 -14 44 36 80 99 70 56 -9 231 31 231
53 0 10 12 18 27 18 63 0 15 111 -54 124 -43 9 -46 4 -33 -42z"/>
<path d="M1559 2244 c-36 -39 -25 -145 16 -159 18 -6 25 21 25 93 0 56 -2 101
-5 101 -3 -1 -19 -17 -36 -35z"/>
<path d="M3196 2157 c-25 -19 -40 -40 -33 -47 7 -6 25 0 40 14 15 15 50 37 77
50 47 21 47 22 6 20 -24 -1 -65 -18 -90 -37z"/>
<path d="M2715 2146 c-41 -11 -43 -24 -7 -71 37 -49 48 -44 45 25 -1 33 -3 59
-3 58 0 -2 -16 -7 -35 -12z"/>
<path d="M3810 2100 c-7 -11 -32 -21 -56 -21 -42 -2 -42 -2 -4 -18 36 -14 150
23 150 50 0 18 -78 9 -90 -11z"/>
<path d="M3569 2065 c-50 -36 -91 -192 -58 -224 37 -37 118 46 96 99 -29 74
-33 106 -10 92 14 -9 18 -3 11 17 -14 36 -12 35 -39 16z"/>
<path d="M1622 1961 c10 -45 10 -99 0 -125 -9 -25 -10 -82 -2 -126 18 -92 18
-91 31 107 10 149 0 223 -30 223 -9 0 -9 -36 1 -79z"/>
<path d="M2515 1976 c-57 -60 -70 -96 -35 -96 11 0 20 9 20 21 0 11 23 42 50
67 28 26 50 52 50 59 0 26 -31 7 -85 -51z"/>
<path d="M2965 2006 c-93 -18 -3 -136 101 -133 49 1 59 -19 12 -25 -10 -2 -23
-4 -29 -5 -7 -2 3 -17 20 -35 35 -34 103 -4 79 36 -7 10 1 34 17 52 53 62 68
99 27 65 -69 -56 -188 -51 -177 8 5 28 6 50 2 48 -4 -1 -27 -6 -52 -11z"/>
<path d="M1738 1925 c-14 -37 -15 -88 -2 -155 l19 -100 2 95 c3 89 28 126 49
70 5 -14 15 -19 24 -11 15 14 -41 156 -61 156 -6 0 -20 -25 -31 -55z"/>
<path d="M1980 1961 c0 -30 29 -40 78 -27 34 9 39 16 19 28 -36 23 -97 22 -97
-1z"/>
<path d="M1544 1875 c-14 -17 -12 -32 6 -49 21 -19 29 -18 38 7 26 66 -2 93
-44 42z"/>
<path d="M1965 1845 c-35 -51 -62 -112 -128 -285 -33 -88 -34 -104 -4 -135 32
-33 47 -32 47 5 0 18 19 30 48 30 26 0 58 14 72 30 14 17 42 30 62 30 21 0 38
10 38 21 0 12 -17 16 -38 10 -21 -7 -43 -5 -49 4 -16 26 20 72 43 57 12 -7 27
-4 34 8 7 11 -8 20 -36 20 -83 0 -108 52 -54 110 36 39 53 44 84 28 21 -11 49
-16 62 -11 14 6 5 16 -20 24 -26 8 -39 24 -32 41 6 17 -3 28 -22 28 -18 0 -32
9 -32 20 0 38 -37 20 -75 -35z m-9 -284 c-2 -33 -16 -64 -30 -70 -32 -12 -33
12 -3 78 30 66 39 64 33 -8z"/>
<path d="M2630 1872 c-27 -21 -31 -31 -12 -31 22 -1 21 -9 -6 -39 -19 -21 -32
-55 -28 -75 4 -26 -8 -39 -39 -43 -29 -4 -45 -21 -45 -45 0 -22 -2 -45 -5 -52
-19 -50 71 -13 98 40 17 35 45 78 61 96 48 56 27 188 -24 149z"/>
<path d="M3445 1777 c-18 -18 -18 -31 -2 -51 35 -42 81 -32 73 17 -7 52 -38
67 -71 34z"/>
<path d="M3363 1653 c-18 -21 -20 -33 -5 -33 12 0 22 -13 22 -30 0 -16 9 -30
20 -30 11 0 20 8 20 19 0 10 18 24 40 31 22 7 40 22 40 33 0 10 -10 13 -22 6
-12 -8 -31 -2 -42 13 -15 22 -17 20 -9 -7 7 -19 4 -35 -6 -35 -10 0 -21 15
-25 33 -6 31 -8 31 -33 0z"/>
<path d="M1698 1623 c-71 -72 -92 -226 -41 -290 35 -44 48 -114 20 -109 -17 4
-28 -14 -29 -44 -1 -27 -8 -70 -16 -95 -12 -36 -8 -42 17 -33 24 9 29 3 20
-25 -10 -29 -8 -31 7 -7 40 63 50 333 14 387 -32 49 -25 145 9 124 21 -14 67
92 47 110 -9 8 -31 0 -48 -18z"/>
<path d="M2494 1491 c-25 -19 -29 -32 -14 -41 16 -10 10 -27 -18 -53 -48 -44
-54 -77 -15 -77 30 0 66 66 79 145 5 30 7 55 6 54 -1 0 -18 -13 -38 -28z"/>
<path d="M2628 1473 c-33 -37 22 -111 56 -77 19 19 19 24 0 24 -13 0 -24 8
-24 18 0 21 51 18 73 -4 7 -8 23 -14 35 -14 12 1 0 18 -28 40 -58 46 -82 48
-112 13z"/>
<path d="M1960 1420 c-41 -32 -43 -39 -15 -40 19 0 53 18 75 40 52 52 6 52
-60 0z"/>
<path d="M2085 1311 c-24 -25 -39 -51 -31 -58 20 -21 46 -15 46 10 0 13 15 40
33 60 47 52 6 42 -48 -12z"/>
<path d="M1505 1136 c-13 -35 -20 -68 -14 -73 15 -16 68 63 68 102 1 56 -28
40 -54 -29z"/>
<path d="M3491 1155 c-17 -52 -21 -191 -5 -181 9 5 27 -18 39 -52 13 -34 35
-62 49 -62 14 0 26 -17 26 -38 0 -20 14 -71 31 -112 39 -92 26 -149 -24 -107
-28 23 -35 23 -43 0 -5 -16 -26 -45 -46 -65 -49 -49 -48 -53 12 -53 27 0 45 7
39 16 -10 16 68 70 80 56 3 -4 14 -23 24 -42 17 -32 24 -29 66 28 33 45 38 60
16 52 -19 -7 -37 0 -43 18 -19 48 -14 54 18 27 42 -35 39 4 -9 87 -21 38 -33
75 -26 81 6 7 0 12 -15 12 -15 0 -21 5 -15 12 7 7 -8 32 -32 55 -25 24 -44 57
-43 73 2 39 -50 122 -70 110 -8 -5 -12 18 -8 50 7 60 -6 82 -21 35z"/>
<path d="M2471 1141 c-8 -13 -4 -36 10 -52 32 -39 119 -38 119 1 0 17 -16 30
-36 30 -20 0 -46 10 -58 22 -15 15 -25 15 -35 -1z"/>
<path d="M2474 1005 c-20 -5 -45 -30 -55 -57 -14 -37 -33 -48 -83 -48 -82 0
-52 -32 49 -51 67 -12 76 -9 94 39 20 53 67 66 119 34 15 -10 22 -27 15 -38
-15 -23 25 -42 63 -29 54 19 -141 164 -202 150z"/>
<path d="M1732 848 c-19 -50 -15 -53 42 -42 29 5 70 0 90 -13 52 -32 85 21 41
65 -22 22 -34 25 -40 8 -5 -17 -22 -18 -58 -5 -63 24 -61 25 -75 -13z"/>
<path d="M2255 822 c-6 -21 -2 -50 7 -65 14 -22 17 -22 18 3 1 26 3 26 19 1
10 -17 25 -24 32 -16 8 7 -4 36 -26 64 -37 46 -41 47 -50 13z"/>
<path d="M2770 752 c14 -60 23 -112 19 -116 -3 -4 10 -29 31 -56 l37 -49 -7
75 c-9 98 -45 205 -78 233 -22 18 -23 3 -2 -87z"/>
<path d="M3520 785 c0 -19 98 -165 110 -165 15 0 -79 178 -95 179 -8 1 -15 -6
-15 -14z"/>
<path d="M2374 705 c-12 -20 18 -98 45 -114 11 -7 21 1 21 19 0 18 9 27 20 20
37 -23 20 15 -23 53 -49 42 -51 43 -63 22z"/>
<path d="M3335 657 c-32 -34 -32 -39 18 -88 63 -64 80 -52 39 28 -23 44 -25
62 -8 68 14 4 16 12 5 18 -10 6 -35 -6 -54 -26z"/>
<path d="M1420 620 c0 -11 9 -20 20 -20 11 0 20 -22 20 -50 0 -27 9 -50 20
-50 11 0 20 32 20 70 0 57 -8 70 -40 70 -22 0 -40 -9 -40 -20z"/>
<path d="M2538 605 c-16 -132 74 -343 147 -345 33 0 13 64 -23 74 -69 18 -109
171 -57 223 20 20 19 29 -5 44 -36 22 -59 24 -62 4z"/>
<path d="M3757 525 c-2 -8 -4 -28 -6 -45 -2 -16 -14 -28 -27 -25 -32 7 -31 -4
15 -93 42 -83 17 -162 -51 -162 -18 0 -24 -10 -16 -23 9 -15 5 -18 -11 -8 -15
10 -33 5 -43 -11 -14 -22 -22 -23 -34 -3 -12 19 -34 15 -95 -15 -43 -22 -87
-36 -99 -32 -11 5 -9 10 5 10 14 1 25 15 25 30 0 16 9 32 20 35 12 4 3 23 -20
42 -40 34 -55 9 -42 -70 1 -8 -12 -15 -29 -15 -17 0 -50 -18 -74 -40 -43 -40
-21 -57 55 -40 11 2 54 8 97 12 42 4 85 13 96 20 10 6 39 15 63 19 24 3 74 11
111 17 108 17 134 30 137 67 2 19 8 61 14 94 6 32 2 69 -9 83 -11 13 -19 31
-17 41 7 41 -4 68 -22 57 -18 -11 -29 15 -22 55 1 8 -2 15 -8 15 -5 0 -11 -7
-13 -15z"/>
<path d="M1698 478 c-36 -23 13 -60 57 -43 16 6 36 0 44 -14 12 -18 18 -17 27
6 14 37 -86 78 -128 51z"/>
<path d="M1934 408 c-14 -15 37 -101 91 -155 29 -28 54 -34 106 -24 83 15 85
23 14 84 -54 46 -73 54 -118 49 -12 -1 -28 11 -34 28 -12 31 -37 39 -59 18z"/>
<path d="M1640 342 c0 -69 30 -84 46 -23 5 22 -3 50 -18 63 -23 19 -28 12 -28
-40z"/>
</g>
</svg>
